<svg width="29" height="28" viewBox="0 0 29 28" fill="none" xmlns="http://www.w3.org/2000/svg">
<path fill-rule="evenodd" clip-rule="evenodd" d="M14.4998 0C6.4926 0 0 6.42657 0 14.3545C0 20.6964 4.15488 26.0771 9.91562 27.9751C10.6406 28.1082 10.9068 27.6638 10.9068 27.2848C10.9068 26.9425 10.8933 25.8116 10.8868 24.6121C6.85296 25.4805 6.002 22.9187 6.002 22.9187C5.34218 21.2597 4.39192 20.8183 4.39192 20.8183C3.07611 19.9274 4.49103 19.9455 4.49103 19.9455C5.94707 20.047 6.7135 21.4249 6.7135 21.4249C8.00703 23.6194 10.1058 22.985 10.9333 22.6182C11.0635 21.6906 11.4391 21.057 11.8538 20.6987C8.63323 20.3363 5.24786 19.1051 5.24786 13.6049C5.24786 12.0379 5.81414 10.7572 6.74154 9.75214C6.59114 9.39045 6.09478 7.93038 6.88235 5.95325C6.88235 5.95325 8.0998 5.56722 10.8701 7.42454C12.0271 7.10659 13.2674 6.94723 14.4996 6.94153C15.7319 6.94723 16.9733 7.10659 18.132 7.42454C20.8996 5.56741 22.1156 5.95306 22.1156 5.95306C22.9047 7.93 22.4085 9.39007 22.2577 9.75157C23.1874 10.7568 23.7498 12.0373 23.7498 13.6043C23.7498 19.1181 20.3579 20.3317 17.1293 20.6871C17.6493 21.1328 18.1128 22.0063 18.1128 23.3456C18.1128 25.2662 18.0963 26.8123 18.0963 27.2848C18.0963 27.667 18.357 28.1143 19.0919 27.9736C24.8507 26.0735 28.9998 20.6947 28.9998 14.3547C28.9996 6.42657 22.5078 0 14.4998 0Z" fill="#1B1817"/>
<path d="M5.49296 20.609C5.46088 20.6805 5.34755 20.7022 5.2444 20.6527C5.13875 20.6059 5.08016 20.5086 5.11416 20.4371C5.14547 20.3638 5.2588 20.3435 5.36388 20.3924C5.46914 20.4393 5.52908 20.5375 5.49296 20.609ZM6.07865 21.2578C6.0095 21.3213 5.87407 21.292 5.78283 21.1916C5.68755 21.0914 5.67007 20.9574 5.74018 20.8931C5.81126 20.8298 5.94265 20.8594 6.03735 20.9596C6.13243 21.0608 6.15107 21.1935 6.07865 21.2578ZM6.65031 22.085C6.56137 22.1465 6.41596 22.0892 6.32606 21.9614C6.23712 21.8336 6.23712 21.6806 6.32798 21.6191C6.41827 21.5579 6.56137 21.6134 6.65262 21.7397C6.74098 21.8696 6.74098 22.0225 6.65031 22.085ZM7.43539 22.8839C7.35586 22.9706 7.18663 22.9472 7.06273 22.8288C6.93595 22.7132 6.90061 22.5489 6.98013 22.4621C7.06081 22.3752 7.231 22.3994 7.35586 22.5173C7.48168 22.6325 7.51991 22.798 7.43539 22.8839ZM8.5159 23.3474C8.48056 23.4596 8.31805 23.5109 8.15362 23.4628C7.98938 23.4137 7.882 23.2821 7.91542 23.1686C7.94923 23.0555 8.11328 23.0022 8.27848 23.0534C8.44233 23.1022 8.55009 23.2331 8.5159 23.3474ZM9.70206 23.4329C9.70591 23.5514 9.56683 23.6497 9.39472 23.6516C9.22107 23.6554 9.08065 23.5596 9.07873 23.4432C9.07873 23.3234 9.21511 23.2264 9.388 23.2236C9.56088 23.2198 9.70206 23.3154 9.70206 23.4327M10.8066 23.2475C10.8271 23.3628 10.7075 23.4814 10.5361 23.513C10.3679 23.5438 10.2121 23.4723 10.1907 23.358C10.1696 23.2395 10.2916 23.1211 10.4597 23.0904C10.6312 23.0608 10.7847 23.1302 10.8066 23.2475Z" fill="#1B1817"/>
</svg>
