<svg width="28" height="28" viewBox="0 0 28 28" fill="none" xmlns="http://www.w3.org/2000/svg">
<rect width="28" height="28" rx="14" fill="white"/>
<path d="M24.9993 14.454C24.9993 13.5311 24.9244 12.8576 24.7623 12.1592H14.2236V16.3247H20.4096C20.2849 17.3599 19.6115 18.9189 18.1148 19.9665L18.0938 20.1059L21.426 22.6873L21.6568 22.7103C23.777 20.7522 24.9993 17.8712 24.9993 14.454Z" fill="#4285F4"/>
<path d="M14.2236 25.4285C17.2543 25.4285 19.7985 24.4307 21.6568 22.7096L18.1148 19.9658C17.167 20.6268 15.8948 21.0882 14.2236 21.0882C11.2554 21.0882 8.73609 19.1302 7.83804 16.4238L7.7064 16.435L4.2416 19.1164L4.19629 19.2424C6.0421 22.9091 9.83353 25.4285 14.2236 25.4285Z" fill="#34A853"/>
<path d="M7.83901 16.4241C7.60205 15.7257 7.46492 14.9773 7.46492 14.2041C7.46492 13.4308 7.60205 12.6825 7.82655 11.9841L7.82027 11.8354L4.31205 9.11084L4.19726 9.16544C3.43652 10.687 3 12.3957 3 14.2041C3 16.0125 3.43652 17.7211 4.19726 19.2427L7.83901 16.4241Z" fill="#FBBC05"/>
<path d="M14.2236 7.31965C16.3313 7.31965 17.7531 8.23009 18.5638 8.99092L21.7316 5.89789C19.7861 4.08949 17.2543 2.97949 14.2236 2.97949C9.83353 2.97949 6.0421 5.49878 4.19629 9.16546L7.82557 11.9841C8.73609 9.27775 11.2554 7.31965 14.2236 7.31965Z" fill="#EB4335"/>
</svg>
