<svg width="28" height="28" viewBox="0 0 28 28" fill="none" xmlns="http://www.w3.org/2000/svg">
<g clip-path="url(#clip0_198_305)">
<path d="M28.004 14C28.004 21.7348 21.7388 28 14.004 28C6.26923 28 0.00292969 21.7358 0.00292969 14C0.00292969 6.26417 6.26816 0 14.0029 0C21.7377 0 28.004 6.26524 28.004 14Z" fill="#DA552F"/>
<path d="M15.8701 13.9999H11.903V9.81099H15.8701C17.025 9.81099 17.9709 10.7558 17.9709 11.9118C17.9709 13.0678 17.0261 14.0127 15.8701 14.0127M15.8701 7.0127H9.10254V21.0127H11.903V16.8131H15.8701C18.5766 16.8131 20.7703 14.6195 20.7703 11.9129C20.7703 9.20633 18.5766 7.0127 15.8701 7.0127Z" fill="white"/>
</g>
<defs>
<clipPath id="clip0_198_305">
<rect width="28" height="28" fill="white"/>
</clipPath>
</defs>
</svg>
