<svg width="28" height="28" viewBox="0 0 28 28" fill="none" xmlns="http://www.w3.org/2000/svg">
<rect width="28" height="28" rx="14" fill="#FF4500"/>
<path d="M15.4049 8.91072C15.4953 9.28137 15.7208 9.60603 16.0382 9.82248C16.3556 10.0389 16.7427 10.1319 17.1252 10.0837C17.5077 10.0354 17.8588 9.84931 18.1111 9.56099C18.3634 9.27267 18.4992 8.90243 18.4925 8.52123C18.4858 8.14002 18.3371 7.77466 18.0748 7.49516C17.8126 7.21567 17.4552 7.04169 17.0712 7.00658C16.6873 6.97147 16.3037 7.07769 15.994 7.30489C15.6844 7.53209 15.4704 7.86429 15.3931 8.23782C14.7748 8.30487 14.2033 8.59519 13.788 9.05311C13.3728 9.51104 13.1431 10.1044 13.1429 10.7194V10.7272C11.8615 10.7665 10.6115 11.1294 9.51193 11.7813C9.26782 11.5989 8.98782 11.4692 8.68993 11.4003C8.39204 11.3315 8.08287 11.3251 7.78232 11.3815C7.48178 11.438 7.19652 11.556 6.9449 11.728C6.69328 11.9001 6.48089 12.1223 6.32139 12.3804C6.16189 12.6385 6.05882 12.9268 6.01882 13.2267C5.97881 13.5265 6.00276 13.8314 6.08911 14.1216C6.17547 14.4117 6.32232 14.6808 6.52021 14.9115C6.71811 15.1421 6.96266 15.3293 7.23812 15.4608C7.30893 17.9774 10.0823 20 13.493 20C16.9038 20 19.6811 17.9774 19.748 15.4569C20.0256 15.3267 20.2725 15.1402 20.4725 14.9095C20.6724 14.6788 20.8211 14.4091 20.9088 14.1179C20.9966 13.8267 21.0213 13.5205 20.9816 13.2192C20.9418 12.9179 20.8384 12.6283 20.6781 12.3691C20.5177 12.1099 20.304 11.8869 20.0509 11.7147C19.7977 11.5424 19.5107 11.4248 19.2086 11.3694C18.9064 11.3139 18.5959 11.3219 18.2971 11.3929C17.9983 11.4639 17.7179 11.5962 17.4742 11.7813C16.3639 11.1243 15.1012 10.7612 13.8078 10.7272V10.7194C13.8082 10.2787 13.9697 9.85294 14.2624 9.5206C14.5552 9.18825 14.9595 8.97167 15.401 8.91072H15.4049ZM9.42538 14.8735C9.46079 14.0878 9.98793 13.4849 10.6056 13.4849C11.2153 13.4849 11.6834 14.1228 11.648 14.9085C11.6087 15.6942 11.1524 15.9781 10.5387 15.9781C9.92499 15.9781 9.38604 15.6592 9.42145 14.8735H9.42538ZM16.3963 13.4849C17.01 13.4849 17.5371 14.0878 17.5765 14.8735C17.6119 15.6592 17.0729 15.9781 16.4592 15.9781C15.8455 15.9781 15.3853 15.6942 15.3499 14.9085C15.3105 14.1228 15.7826 13.4849 16.3963 13.4849ZM15.6646 16.6899C15.7826 16.7016 15.8534 16.8183 15.8101 16.9233C15.6206 17.3751 15.3 17.7613 14.8886 18.0329C14.4772 18.3046 13.9936 18.4496 13.4989 18.4496C13.0043 18.4496 12.5207 18.3046 12.1093 18.0329C11.6979 17.7613 11.3772 17.3751 11.1878 16.9233C11.1779 16.8986 11.174 16.8719 11.1763 16.8453C11.1787 16.8188 11.1873 16.7932 11.2014 16.7706C11.2155 16.7479 11.2348 16.7288 11.2577 16.7148C11.2806 16.7008 11.3065 16.6923 11.3333 16.6899C12.7735 16.5469 14.2244 16.5469 15.6646 16.6899Z" fill="white"/>
</svg>
